<svg width="24" height="24" viewBox="0 0 24 24" fill="none" xmlns="http://www.w3.org/2000/svg">
  <path d="M10.2726 22.4706V17.1302C9.71882 17.0389 9.20416 16.8495 8.71907 16.5629C7.98342 16.1283 7.4067 15.5634 6.97108 14.8571C6.56538 14.1579 6.35675 13.3823 6.35675 12.5V2.5H1V12.5C1 13.8591 1.25831 15.1588 1.78093 16.3859L1.78414 16.3934C2.29951 17.5845 3.0178 18.647 3.93372 19.5732L3.94421 19.5836C4.86638 20.4971 5.93485 21.2116 7.14018 21.7233L7.14771 21.7264C8.14423 22.1429 9.18818 22.3899 10.2726 22.4706Z" fill="#fff"/>
  <path d="M12.8111 7.80612L12.8111 2.5H23V12.5C23 13.8727 22.7403 15.1809 22.2118 16.4104L22.2086 16.4179C21.6872 17.6118 20.9592 18.6702 20.0285 19.5836C19.095 20.4998 18.0064 21.2141 16.7743 21.7248C15.5346 22.2457 14.2081 22.5 12.8111 22.5V17.1939C13.7072 17.1939 14.4959 16.9807 15.2094 16.5629C15.9525 16.1279 16.5245 15.5638 16.9468 14.8604L16.9507 14.8539C17.3764 14.1535 17.5936 13.3795 17.5936 12.5V7.80612H12.8111Z" fill="#fff"/>
</svg>
